<svg xmlns="http://www.w3.org/2000/svg" viewBox="0 0 640 360" role="img" aria-labelledby="t1">
  <title id="t1">Constructify — Admin dashboard demo</title>
  <defs>
    <linearGradient id="bg" x1="0%" y1="0%" x2="100%" y2="100%">
      <stop offset="0%" stop-color="#0f172a"/>
      <stop offset="100%" stop-color="#1e3a8a"/>
    </linearGradient>
    <linearGradient id="accent" x1="0%" y1="0%" x2="100%" y2="0%">
      <stop offset="0%" stop-color="#fbbf24" stop-opacity="0.9"/>
      <stop offset="100%" stop-color="#f59e0b" stop-opacity="0.4"/>
    </linearGradient>
  </defs>
  <rect width="640" height="360" fill="url(#bg)"/>
  <rect x="0" y="0" width="640" height="4" fill="url(#accent)"/>
  <rect x="40" y="100" width="560" height="200" rx="12" fill="#1e293b" stroke="#334155" stroke-width="2"/>
  <rect x="56" y="116" width="120" height="12" rx="4" fill="#475569"/>
  <rect x="56" y="140" width="200" height="8" rx="2" fill="#64748b"/>
  <rect x="56" y="168" width="528" height="100" rx="8" fill="#0f172a" stroke="#475569"/>
  <rect x="72" y="188" width="80" height="60" rx="4" fill="#1e3a8a" opacity="0.6"/>
  <rect x="168" y="188" width="80" height="60" rx="4" fill="#1e3a8a" opacity="0.4"/>
  <rect x="264" y="188" width="80" height="60" rx="4" fill="#1e3a8a" opacity="0.3"/>
  <rect x="40" y="28" width="40" height="40" rx="8" fill="#22c55e" opacity="0.9"/>
  <text x="52" y="54" fill="#0f172a" font-family="system-ui, Segoe UI, sans-serif" font-size="18" font-weight="800">C</text>
  <text x="92" y="52" fill="#f8fafc" font-family="system-ui, Segoe UI, sans-serif" font-size="22" font-weight="700">Constructify</text>
  <text x="40" y="312" fill="#e2e8f0" font-family="system-ui, Segoe UI, sans-serif" font-size="26" font-weight="700">Admin</text>
  <text x="40" y="342" fill="#94a3b8" font-family="system-ui, Segoe UI, sans-serif" font-size="15">See the Admin Dashboard</text>
  <text x="400" y="342" fill="#fbbf24" font-family="system-ui, Segoe UI, sans-serif" font-size="14" font-weight="600">Get to Know Constructify</text>
</svg>
